# AST/ASF file generated using VICON BodyLanguage
# -----------------------------------------------
:version 1.10
:name VICON
:units
  mass 1.0
  length 0.45
  angle deg
:documentation
   .ast/.asf automatically generated from VICON data using
   VICON BodyBuilder and BodyLanguage model FoxedUp or BRILLIANT.MOD
:root
   order TX TY TZ RX RY RZ
   axis XYZ
   position 0 0 0  
   orientation 0 0 0 
:bonedata
  begin
     id 1 
     name lhipjoint
     direction 0.707368 -0.647095 0.284426 
     length 2.60678 
     axis 0 0 0  XYZ
  end
  begin
     id 2 
     name lfemur
     direction 0.34202 -0.939693 0  
     length 6.63812  
     axis 0 0 20  XYZ
    dof rx ry rz
    limits (-160.0 20.0)
           (-70.0 70.0)
           (-60.0 70.0)
  end
  begin
     id 3 
     name ltibia
     direction 0.34202 -0.939693 0   
     length 7.51178   
     axis 0 0 20   XYZ
    dof rx
    limits (-10.0 170.0)
  end
  begin
     id 4 
     name lfoot
     direction 0.121251 -0.333133 0.935051   
     length 1.83716   
     axis -90 7.62852e-016 20   XYZ
    dof rx rz
    limits (-45.0 90.0)
           (-70.0 20.0)
  end
  begin
     id 5 
     name ltoes
     direction 1.53611e-011 -4.21962e-011 1   
     length 0.916133   
     axis -90 7.62852e-016 20   XYZ
    dof rx
    limits (-90.0 20.0)
  end
  begin
     id 6 
     name rhipjoint
     direction -0.692419 -0.660507 0.290321   
     length 2.55385  
     axis 0 0 0  XYZ 
  end
  begin
     id 7 
     name rfemur
     direction -0.34202 -0.939693 0   
     length 7.29079   
     axis 0 0 -20   XYZ
    dof rx ry rz
    limits (-160.0 20.0)
           (-70.0 70.0)
           (-70.0 60.0)
  end
  begin
     id 8 
     name rtibia
     direction -0.34202 -0.939693 0   
     length 7.47143   
     axis 0 0 -20   XYZ
    dof rx
    limits (-10.0 170.0)
 end
 begin
     id 9 
     name rfoot
     direction -0.119907 -0.329441 0.936532   
     length 1.79439  
     axis -90 -7.62852e-016 -20   XYZ
    dof rx rz
    limits (-45.0 90.0)
           (-20.0 70.0)
  end
  begin
     id 10 
     name rtoes
     direction -1.53571e-011 -4.21961e-011 1   
     length 0.896039   
     axis -90 -7.62852e-016 -20   XYZ
    dof rx
    limits (-90.0 20.0)
  end
  begin
     id 11 
     name lowerback
     direction 0.0367721 0.992912 -0.113016   
     length 1.73542   
     axis 0 0 0   XYZ
    dof rx ry rz
    limits (-20.0 45.0)
           (-30.0 30.0)
           (-30.0 30.0)
  end
  begin
     id 12 
     name upperback
     direction -0.000314626 0.990678 0.136227   
     length 1.7514   
     axis 0 0 0   XYZ
    dof rx ry rz
    limits (-20.0 45.0)
           (-30.0 30.0)
           (-30.0 30.0)
  end
  begin
     id 13 
     name thorax
     direction -0.0226159 0.981151 0.191917   
     length 1.71471   
     axis 0 0 0   XYZ
    dof rx ry rz
    limits (-20.0 45.0)
           (-30.0 30.0)
           (-30.0 30.0)
  end
  begin
     id 14 
     name lowerneck
     direction 0.0219333 0.998071 0.0580739   
     length 1.65882   
     axis 0 0 0   XYZ
    dof rx ry rz
    limits (-20.0 45.0)
           (-30.0 30.0)
           (-30.0 30.0)
  end
  begin
     id 15 
     name upperneck
     direction 0.0384529 0.980058 -0.194957   
     length 1.6612   
     axis 0 0 0   XYZ
    dof rx ry rz
    limits (-20.0 45.0)
           (-30.0 30.0)
           (-30.0 30.0)
  end
  begin
     id 16
     name head
     direction 0.00592123 0.997421 -0.0715234  
     length 1.68077  
     axis 0 0 0   XYZ
    dof rx ry rz
    limits (-20.0 45.0)
           (-30.0 30.0)
           (-30.0 30.0)
  end
  begin
     id 17 
     name lclavicle
     direction 0.904803 0.417826 0.0821728  
     length 3.42227  
     axis 0 0 0   XYZ
    dof ry rz
    limits (-20.0 10.0)
           (0.0 20.0)
  end
  begin
     id 18 
     name lhumerus
     direction 1 -4.48965e-011 -2.68786e-027   
     length 5.11878   
     axis -180 -30 -90   XYZ
    dof rx ry rz
    limits (-60.0 90.0)
           (-90.0 90.0)
           (-90.0 90.0)
  end
  begin
     id 19
     name lradius
     direction 1 -4.48965e-011 2.61168e-028   
     length 3.59971   
     axis -180 -30 -90   XYZ
    dof rx
    limits (-10.0 170.0)
  end
  begin
     id 20
     name lwrist
     direction 1 -4.48965e-011 1.58672e-027   
     length 1.79985   
     axis -1.65735e-015 90 90   XYZ
    dof ry
    limits (-180.0 0.0)
 end
  begin
     id 21 
     name lhand
     direction 1 -4.48942e-011 3.17344e-027   
     length 0.62877   
     axis -2.02492e-015 90 90   XYZ
    dof rx rz
    limits (-90.0 90.0)
           (-45.0 45.0)
  end
  begin
     id 22 
     name lfingers
     direction 1 -4.49011e-011 6.34687e-027   
     length 0.506931   
     axis -4.04985e-015 90 90   XYZ
    dof rx
    limits (0.0 90.0)
  end
  begin
     id 23
     name lthumb
     direction 0.707107 -6.34982e-011 0.707107   
     length 0.727854   
     axis -90 45 2.85299e-015   XYZ
    dof rx rz
    limits (-45.0 45.0)
           (-45.0 45.0)
  end
  begin
     id 24 
     name rclavicle
     direction -0.945647 0.32488 0.0143075   
     length 3.52737  
     axis 0 0 0   XYZ 
    dof ry rz
    limits (-10.0 20.0)
           (-20.0 0.0)
  end
  begin
     id 25 
     name rhumerus
     direction -1 -4.48962e-011 1.92182e-027  
     length 5.4902   
     axis -180 30 90   XYZ
    dof rx ry rz
    limits (-90.0 60.0)
           (-90.0 90.0)
           (-90.0 90.0)
  end
  begin
     id 26 
     name rradius
     direction -1 -4.48967e-011 -5.97193e-028   
     length 3.20659   
     axis -180 30 90   XYZ
    dof rx
    limits (-10.0 170.0)
  end
  begin
     id 27 
     name rwrist
     direction -1 -4.48964e-011 1.58672e-027   
     length 1.6033   
     axis -1.65735e-015 -90 -90   XYZ
    dof ry
    limits (-180.0 0.0)
  end
  begin
     id 28
     name rhand
     direction -1 -4.49006e-011 3.17344e-027   
     length 0.691885   
     axis -2.02492e-015 -90 -90   XYZ
    dof rx rz
    limits (-90.0 90.0)
           (-45.0 45.0)
  end
  begin
     id 29
     name rfingers
     direction -1 -4.48908e-011 6.34687e-027   
     length 0.557815   
     axis -4.04985e-015 -90 -90   XYZ
    dof rx
    limits (0.0 90.0)
  end
  begin
     id 30
     name rthumb
     direction -0.707107 -6.34999e-011 0.707107   
     length 0.800915   
     axis -90 -45 -2.85299e-015   XYZ
    dof rx rz
    limits (-45.0 45.0)
           (-45.0 45.0)
  end
:hierarchy
  begin
    root lhipjoint rhipjoint lowerback
    lhipjoint lfemur
    lfemur ltibia
    ltibia lfoot
    lfoot ltoes
    rhipjoint rfemur
    rfemur rtibia
    rtibia rfoot
    rfoot rtoes
    lowerback upperback
    upperback thorax
    thorax lowerneck lclavicle rclavicle
    lowerneck upperneck
    upperneck head
    lclavicle lhumerus
    lhumerus lradius
    lradius lwrist
    lwrist lhand lthumb
    lhand lfingers
    rclavicle rhumerus
    rhumerus rradius
    rradius rwrist
    rwrist rhand rthumb
    rhand rfingers
  end

#!OML:ASF I:\Actors\actors\Patient Classification 1\Patient 1\Session 1\Subject1.ASF
:FULLY-SPECIFIED
:DEGREES
90
root 0.60109 17.4472 9.29407 11.3965 -2.60116 -9.36546
lowerback -0.931603 0.801351 6.1232
upperback -9.77132 1.5252 2.18694
thorax -9.76935 0.34518 -1.19396
lowerneck -5.80172 -10.9167 -10.3737
upperneck 18.501 -16.1262 11.3144
head 8.46766 -7.54372 3.7894
rclavicle 5.51627e-015 9.14409e-015
rhumerus -48.2331 -31.7233 -60.2835
rradius 19.0972
rwrist 53.1917
rhand 7.30752 -25.5383
rfingers 7.12502
rthumb 32.5684 -52.6286
lclavicle 5.51627e-015 9.14409e-015
lhumerus -50.8549 24.7628 66.4114
lradius 19.1631
lwrist -26.7568
lhand -18.2141 -8.97867
lfingers 7.12502
lthumb 8.06372 20.8475
rfemur -6.26211 26.2229 24.9212
rtibia 1.35433
rfoot -10.2821 -24.3919
rtoes 1.51102
lfemur 4.72396 -48.6943 -11.4616
ltibia -4.68064
lfoot -28.6503 56.2601
ltoes 14.6886
91
root 0.600921 17.4479 9.29325 11.3708 -2.60125 -9.37688
lowerback -0.912074 0.804365 6.13589
upperback -9.76573 1.53083 2.18144
thorax -9.77407 0.346558 -1.20757
lowerneck -5.83288 -10.9419 -10.31
upperneck 18.5221 -16.1505 11.2257
head 8.46994 -7.55633 3.74525
rclavicle -1.55549e-014 4.33351e-014
rhumerus -48.2256 -31.7629 -60.253
rradius 19.0547
rwrist 53.2887
rhand 7.25199 -25.4496
rfingers 7.12502
rthumb 32.5155 -52.5508
lclavicle -1.55549e-014 4.33351e-014
lhumerus -50.863 24.8041 66.3405
lradius 19.1251
lwrist -26.8402
lhand -18.3471 -9.02657
lfingers 7.12502
lthumb 7.93531 20.8045
rfemur -6.22708 26.1955 24.9505
rtibia 1.33752
rfoot -10.2375 -24.3749
rtoes 1.40151
lfemur 4.75564 -48.6691 -11.466
ltibia -4.69214
lfoot -28.7113 56.2223
ltoes 14.8268
92
root 0.600575 17.4487 9.29209 11.338 -2.60822 -9.37597
lowerback -0.890568 0.819824 6.14889
upperback -9.75406 1.55266 2.16977
thorax -9.77177 0.355856 -1.22919
lowerneck -5.85562 -10.9891 -10.2851
upperneck 18.5308 -16.1988 11.1314
head 8.47227 -7.58388 3.70224
rclavicle 1.21756e-014 3.73715e-014
rhumerus -48.1986 -31.7538 -60.2625
rradius 19.0532
rwrist 53.2391
rhand 7.23927 -25.3463
rfingers 7.12502
rthumb 32.5034 -52.45
lclavicle 1.21756e-014 3.73715e-014
lhumerus -50.8447 24.8072 66.3124
lradius 19.094
lwrist -26.9108
lhand -18.4215 -9.1052
lfingers 7.12502
lthumb 7.86356 20.7286
rfemur -6.19114 26.2459 24.9599
rtibia 1.32196
rfoot -10.253 -24.3955
rtoes 1.6822
lfemur 4.78553 -48.615 -11.4838
ltibia -4.69407
lfoot -28.6605 56.1833
ltoes 14.7672
93
root 0.599764 17.4492 9.29074 11.3337 -2.61102 -9.37551
lowerback -0.911458 0.835856 6.14122
upperback -9.74578 1.57194 2.17248
thorax -9.74871 0.366906 -1.22322
lowerneck -5.86503 -11.023 -10.2634
upperneck 18.5097 -16.2281 11.0513
head 8.46139 -7.60269 3.66807
rclavicle -5.56597e-015 1.19271e-015
rhumerus -48.1583 -31.7345 -60.2704
rradius 19.0494
rwrist 53.111
rhand 7.20614 -25.2707
rfingers 7.12502
rthumb 32.4719 -52.3808
lclavicle -5.56597e-015 1.19271e-015
lhumerus -50.8236 24.796 66.3428
lradius 19.109
lwrist -26.9287
lhand -18.3707 -9.16637
lfingers 7.12502
lthumb 7.9126 20.6655
rfemur -6.20331 26.3209 24.9562
rtibia 1.33921
rfoot -10.294 -24.4449
rtoes 1.89693
lfemur 4.79652 -48.6602 -11.4902
ltibia -4.69473
lfoot -28.5726 56.2545
ltoes 14.6094
94
root 0.599205 17.4497 9.28951 11.3215 -2.61593 -9.36692
lowerback -0.90479 0.858084 6.12942
upperback -9.74878 1.60146 2.16222
thorax -9.75382 0.381755 -1.22985
lowerneck -5.85792 -11.0586 -10.1976
upperneck 18.475 -16.2618 10.9559
head 8.43813 -7.62296 3.62281
rclavicle 2.1419e-014 -7.95139e-016
rhumerus -48.2 -31.7809 -60.2101
rradius 19.0637
rwrist 53.0969
rhand 7.19772 -25.2339
rfingers 7.12502
rthumb 32.4639 -52.3457
lclavicle 2.1419e-014 -7.95139e-016
lhumerus -50.7728 24.6498 66.4733
lradius 19.1324
lwrist -26.7991
lhand -18.3976 -9.23954
lfingers 7.12502
lthumb 7.88661 20.5934
rfemur -6.2037 26.2943 24.9561
rtibia 1.36608
rfoot -10.2764 -24.4297
rtoes 1.66874
lfemur 4.84624 -48.7563 -11.5402
ltibia -4.70004
lfoot -28.6927 56.3254
ltoes 14.7123
95
root 0.599786 17.4506 9.28748 11.2977 -2.61877 -9.33376
lowerback -0.859236 0.873494 6.12632
upperback -9.75717 1.6239 2.12713
thorax -9.78789 0.390214 -1.26783
lowerneck -5.81415 -11.0846 -10.119
upperneck 18.4034 -16.2862 10.879
head 8.39524 -7.639 3.58557
rclavicle 3.32964e-015 -1.70955e-014
rhumerus -48.2489 -31.819 -60.168
rradius 19.0881
rwrist 53.1513
rhand 7.2849 -25.2674
rfingers 7.12502
rthumb 32.5468 -52.3621
lclavicle 3.32964e-015 -1.70955e-014
lhumerus -50.7367 24.5416 66.5092
lradius 19.114
lwrist -26.7395
lhand -18.4832 -9.3796
lfingers 7.12502
lthumb 7.80399 20.4564
rfemur -6.19091 26.1751 24.926
rtibia 1.36813
rfoot -10.2119 -24.3471
rtoes 1.39156
lfemur 4.89067 -48.8138 -11.6224
ltibia -4.69755
lfoot -28.8373 56.3449
ltoes 14.8711
96
root 0.60038 17.451 9.28546 11.2945 -2.62475 -9.32649
lowerback -0.846911 0.876313 6.13989
upperback -9.76592 1.62864 2.11137
thorax -9.80427 0.389995 -1.29263
lowerneck -5.74806 -11.0686 -10.1935
upperneck 18.3499 -16.2858 11.0274
head 8.38509 -7.63579 3.64971
rclavicle -2.68359e-014 2.26615e-014
rhumerus -48.2977 -31.8886 -60.0823
rradius 19.0855
rwrist 53.2843
rhand 7.35049 -25.326
rfingers 7.12502
rthumb 32.6092 -52.4078
lclavicle -2.68359e-014 2.26615e-014
lhumerus -50.7569 24.5481 66.4388
lradius 19.1042
lwrist -26.7965
lhand -18.538 -9.44448
lfingers 7.12502
lthumb 7.75105 20.3935
rfemur -6.21156 26.1274 24.9046
rtibia 1.37504
rfoot -10.2049 -24.3023
rtoes 1.4033
lfemur 4.92324 -48.9261 -11.6669
ltibia -4.69726
lfoot -28.9228 56.4482
ltoes 14.868
97
root 0.600157 17.4508 9.28344 11.2967 -2.6111 -9.33583
lowerback -0.848544 0.867223 6.14977
upperback -9.77445 1.61735 2.11373
thorax -9.8138 0.383343 -1.29469
lowerneck -5.70555 -11.0289 -10.3874
upperneck 18.3591 -16.2796 11.3409
head 8.4248 -7.62204 3.78512
rclavicle 9.54166e-015 -1.94809e-014
rhumerus -48.3694 -31.9993 -59.9456
rradius 19.0707
rwrist 53.4731
rhand 7.38859 -25.3939
rfingers 7.12502
rthumb 32.6455 -52.4682
lclavicle 9.54166e-015 -1.94809e-014
lhumerus -50.7779 24.512 66.4291
lradius 19.1359
lwrist -26.7798
lhand -18.5607 -9.45269
lfingers 7.12502
lthumb 7.72915 20.3861
rfemur -6.23611 26.1741 24.9037
rtibia 1.39844
rfoot -10.2619 -24.3398
rtoes 1.59818
lfemur 4.88693 -48.9413 -11.6324
ltibia -4.67618
lfoot -28.9259 56.4424
ltoes 14.872
98
root 0.600035 17.4505 9.28106 11.2887 -2.57418 -9.33175
lowerback -0.827847 0.848819 6.14944
upperback -9.78559 1.59537 2.11849
thorax -9.84052 0.371936 -1.28806
lowerneck -5.72287 -11.0167 -10.4168
upperneck 18.3824 -16.2691 11.3803
head 8.44061 -7.6146 3.80285
rclavicle 1.14301e-015 -2.3059e-014
rhumerus -48.3893 -31.9898 -59.906
rradius 19.0669
rwrist 53.5037
rhand 7.44576 -25.4788
rfingers 7.12502
rthumb 32.6999 -52.5418
lclavicle 1.14301e-015 -2.3059e-014
lhumerus -50.7955 24.501 66.4142
lradius 19.15
lwrist -26.7638
lhand -18.5982 -9.55806
lfingers 7.12502
lthumb 7.69299 20.282
rfemur -6.23659 26.1641 24.9051
rtibia 1.41545
rfoot -10.2837 -24.3497
rtoes 1.57667
lfemur 4.79095 -48.7805 -11.5601
ltibia -4.64821
lfoot -28.7504 56.2748
ltoes 14.831
99
root 0.600141 17.4508 9.27879 11.2653 -2.55325 -9.36265
lowerback -0.789401 0.83891 6.18215
upperback -9.79449 1.58897 2.13778
thorax -9.87457 0.365978 -1.28561
lowerneck -5.79281 -11.0301 -10.3784
upperneck 18.4458 -16.2684 11.2589
head 8.46029 -7.61705 3.75265
rclavicle 2.08227e-014 2.38542e-015
rhumerus -48.3375 -31.7902 -60.0232
rradius 19.0937
rwrist 53.296
rhand 7.50487 -25.566
rfingers 7.12502
rthumb 32.7561 -52.6173
lclavicle 2.08227e-014 2.38542e-015
lhumerus -50.8176 24.5163 66.3905
lradius 19.1418
lwrist -26.7628
lhand -18.5792 -9.54329
lfingers 7.12502
lthumb 7.71129 20.2961
rfemur -6.21772 26.1188 24.9599
rtibia 1.43472
rfoot -10.2768 -24.3189
rtoes 1.43499
lfemur 4.79023 -48.7107 -11.5172
ltibia -4.65018
lfoot -28.6504 56.2112
ltoes 14.737
100
root 0.599823 17.4515 9.2765 11.2099 -2.55012 -9.36012
lowerback -0.731277 0.829665 6.17186
upperback -9.78373 1.58133 2.1479
thorax -9.89801 0.363134 -1.26947
lowerneck -5.85812 -11.0377 -10.3958
upperneck 18.5037 -16.2695 11.2158
head 8.48943 -7.61804 3.73671
rclavicle 1.49089e-015 1.27222e-014
rhumerus -48.2587 -31.5748 -60.1697
rradius 19.119
rwrist 53.1121
rhand 7.51328 -25.5871
rfingers 7.12502
rthumb 32.7641 -52.6368
lclavicle 1.49089e-015 1.27222e-014
lhumerus -50.8148 24.5232 66.3803
lradius 19.135
lwrist -26.7303
lhand -18.453 -9.43087
lfingers 7.12502
lthumb 7.83317 20.404
rfemur -6.15974 26.1317 24.9836
rtibia 1.43072
rfoot -10.2791 -24.3378
rtoes 1.51363
lfemur 4.90763 -48.8 -11.6069
ltibia -4.66506
lfoot -28.7036 56.2798
ltoes 14.7641
101
root 0.598909 17.4516 9.27447 11.1452 -2.54564 -9.29165
lowerback -0.666585 0.820522 6.08831
upperback -9.76677 1.56851 2.1325
thorax -9.91817 0.362819 -1.23977
lowerneck -5.86736 -11.0371 -10.3874
upperneck 18.4835 -16.2658 11.2143
head 8.483 -7.61591 3.73504
rclavicle -3.62782e-015 9.93923e-015
rhumerus -48.2029 -31.4639 -60.2368
rradius 19.1061
rwrist 53.0652
rhand 7.52232 -25.6103
rfingers 7.12502
rthumb 32.7727 -52.6582
lclavicle -3.62782e-015 9.93923e-015
lhumerus -50.8151 24.6114 66.2785
lradius 19.1023
lwrist -26.8226
lhand -18.3482 -9.49646
lfingers 7.12502
lthumb 7.93425 20.3346
rfemur -6.08362 26.1671 24.9338
rtibia 1.40789
rfoot -10.284 -24.3886
rtoes 1.71442
lfemur 5.01714 -48.8564 -11.765
ltibia -4.67778
lfoot -28.6572 56.3242
ltoes 14.7605
102
root 0.597891 17.4511 9.2727 11.1037 -2.54423 -9.26108
lowerback -0.615985 0.820738 6.04197
upperback -9.76722 1.57017 2.12195
thorax -9.94874 0.366202 -1.22626
lowerneck -5.84729 -11.0299 -10.4318
upperneck 18.4694 -16.2746 11.3238
head 8.4894 -7.61527 3.77788
rclavicle -9.0447e-015 8.34896e-015
rhumerus -48.1827 -31.3564 -60.299
rradius 19.112
rwrist 52.9707
rhand 7.65502 -25.6545
rfingers 7.12502
rthumb 32.899 -52.6759
lclavicle -9.0447e-015 8.34896e-015
lhumerus -50.8301 24.664 66.1971
lradius 19.0784
lwrist -26.8898
lhand -18.2814 -9.44429
lfingers 7.12502
lthumb 7.99871 20.3844
rfemur -6.0436 26.1711 24.9235
rtibia 1.42204
rfoot -10.2716 -24.4175
rtoes 1.72007
lfemur 5.0346 -48.7749 -11.8067
ltibia -4.67019
lfoot -28.5788 56.2408
ltoes 14.7018
103
root 0.597866 17.4512 9.27101 11.0876 -2.54886 -9.27253
lowerback -0.592237 0.824631 6.05439
upperback -9.78035 1.57868 2.12013
thorax -9.97722 0.368276 -1.23598
lowerneck -5.83764 -11.0294 -10.4825
upperneck 18.4731 -16.2892 11.4135
head 8.50321 -7.61863 3.81363
rclavicle -2.31087e-014 3.29983e-014
rhumerus -48.2054 -31.2406 -60.3793
rradius 19.184
rwrist 52.7851
rhand 7.89497 -25.6791
rfingers 7.12502
rthumb 33.1272 -52.6524
lclavicle -2.31087e-014 3.29983e-014
lhumerus -50.823 24.5196 66.301
lradius 19.1209
lwrist -26.6713
lhand -18.2302 -9.23291
lfingers 7.12502
lthumb 8.04813 20.5938
rfemur -6.04555 26.0994 24.9497
rtibia 1.46281
rfoot -10.2386 -24.3722
rtoes 1.42946
lfemur 5.02892 -48.7237 -11.7927
ltibia -4.65056
lfoot -28.6751 56.1639
ltoes 14.7531
104
root 0.598155 17.452 9.26856 11.0837 -2.56167 -9.2815
lowerback -0.566753 0.83043 6.06398
upperback -9.80013 1.59028 2.12021
thorax -10.0142 0.371868 -1.24235
lowerneck -5.80134 -11.0345 -10.477
upperneck 18.4429 -16.2922 11.3949
head 8.48466 -7.62354 3.80849
rclavicle 4.77083e-015 1.66979e-014
rhumerus -48.2442 -31.1993 -60.3956
rradius 19.2324
rwrist 52.63
rhand 8.17739 -25.7415
rfingers 7.12502
rthumb 33.3957 -52.6574
lclavicle 4.77083e-015 1.66979e-014
lhumerus -50.8318 24.3847 66.403
lradius 19.1741
lwrist -26.4588
lhand -18.2644 -9.22381
lfingers 7.12502
lthumb 8.01514 20.6042
rfemur -6.07148 26.0103 24.9562
rtibia 1.49647
rfoot -10.2038 -24.2796
rtoes 1.19198
lfemur 5.05571 -48.7904 -11.8086
ltibia -4.64873
lfoot -28.8105 56.2047
ltoes 14.8806
